<?xml version="1.0" standalone="no"?>
<!DOCTYPE svg PUBLIC "-//W3C//DTD SVG 20010904//EN"
 "http://www.w3.org/TR/2001/REC-SVG-20010904/DTD/svg10.dtd">
<svg version="1.0" xmlns="http://www.w3.org/2000/svg"
 width="607.000000pt" height="759.000000pt" viewBox="0 0 607.000000 759.000000"
 preserveAspectRatio="xMidYMid meet">

<g transform="translate(0.000000,759.000000) scale(0.100000,-0.100000)"
fill="#000000" stroke="none">
<path d="M0 3795 l0 -3795 3035 0 3035 0 0 3795 0 3795 -3035 0 -3035 0 0
-3795z m5521 3231 c71 -33 141 -102 176 -174 25 -50 28 -68 28 -152 0 -84 -3
-101 -28 -147 -71 -136 -181 -205 -327 -205 -84 0 -158 23 -215 67 l-34 26 33
44 c51 66 71 128 71 215 0 87 -20 149 -71 216 -19 24 -34 46 -34 48 0 10 88
62 133 78 75 27 193 20 268 -16z m-547 -2381 c339 -72 467 -516 221 -774 -231
-242 -609 -157 -727 164 -31 85 -31 225 0 315 37 107 126 211 226 262 40 20
141 46 186 47 14 0 56 -6 94 -14z m-751 -824 c26 -4 50 -10 53 -13 7 -8 -23
-183 -52 -299 -96 -387 -275 -696 -502 -866 -152 -115 -345 -194 -568 -234
-126 -22 -448 -32 -528 -16 l-38 8 7 57 c24 197 109 490 195 671 206 430 511
645 996 701 85 10 359 4 437 -9z m31 -1556 c174 -83 238 -325 132 -494 -82
-129 -248 -182 -383 -122 -62 27 -135 102 -166 169 -32 68 -31 217 2 284 80
164 262 236 415 163z"/>
</g>
</svg>
