<?xml version="1.0" standalone="no"?>
<!DOCTYPE svg PUBLIC "-//W3C//DTD SVG 20010904//EN"
 "http://www.w3.org/TR/2001/REC-SVG-20010904/DTD/svg10.dtd">
<svg version="1.0" xmlns="http://www.w3.org/2000/svg"
 width="218.000000pt" height="218.000000pt" viewBox="0 0 218.000000 218.000000"
 preserveAspectRatio="xMidYMid meet">

<g transform="translate(0.000000,218.000000) scale(0.100000,-0.100000)"
fill="#000000" stroke="none">
<path d="M825 1758 c-2 -7 -13 -36 -23 -65 -11 -28 -16 -55 -11 -60 5 -5 2
-33 -5 -64 l-13 -56 57 36 c32 20 56 38 54 40 -2 2 4 14 13 25 18 21 18 21 -3
4 -11 -10 -24 -18 -27 -18 -4 0 -7 28 -7 63 0 34 -3 72 -6 85 -7 24 -22 29
-29 10z"/>
<path d="M750 1660 c-6 -11 -8 -20 -6 -20 3 0 10 9 16 20 6 11 8 20 6 20 -3 0
-10 -9 -16 -20z"/>
<path d="M1549 1639 c-42 -4 -92 -13 -110 -18 -31 -10 -30 -10 16 -5 123 13
129 13 65 -2 -36 -8 -71 -17 -78 -20 -7 -2 -22 -24 -33 -48 -10 -25 -44 -67
-75 -95 -60 -55 -70 -80 -52 -126 29 -74 55 -103 100 -110 l42 -7 -35 -19
c-18 -10 -43 -19 -54 -19 -11 -1 -14 -4 -7 -7 6 -2 10 -9 6 -14 -3 -5 7 -9 23
-10 24 -1 21 -3 -17 -15 -116 -37 -200 -46 -380 -40 -96 4 -199 9 -229 12 -42
5 -52 3 -49 -7 3 -8 20 -19 39 -26 30 -10 31 -12 9 -13 -19 0 -22 -2 -10 -9 8
-6 18 -7 22 -5 4 3 5 -2 2 -10 -4 -9 1 -18 10 -22 9 -3 16 -11 16 -16 0 -6 -7
-7 -16 -4 -14 5 -15 4 -4 -9 9 -11 16 -12 25 -5 9 8 17 6 29 -5 20 -20 20 -29
1 -21 -26 9 -17 -1 20 -24 28 -17 38 -19 55 -10 12 7 25 9 28 5 3 -3 -4 -8
-16 -12 -17 -4 -20 -8 -11 -19 8 -10 0 -18 -40 -39 -28 -14 -51 -28 -51 -31 0
-3 5 -2 10 1 6 3 10 4 10 1 0 -9 -118 -66 -137 -66 -10 0 -27 6 -38 13 -11 8
-33 22 -50 33 -29 18 -30 18 -15 0 14 -18 14 -19 -8 -7 -12 7 -20 16 -17 21 4
6 -1 7 -11 3 -12 -4 -15 -3 -10 6 4 6 4 10 -1 9 -4 -1 -23 1 -41 5 -22 4 -31
11 -26 18 4 8 3 9 -4 5 -7 -4 -12 -2 -12 5 0 7 -3 10 -6 7 -3 -3 2 -23 11 -44
15 -35 18 -37 29 -22 12 16 17 15 64 -16 28 -19 54 -31 58 -27 4 3 4 1 1 -6
-5 -7 11 -20 39 -34 40 -19 51 -20 78 -11 42 15 63 10 83 -19 10 -13 27 -32
38 -42 l20 -19 -22 5 c-15 3 -20 1 -16 -9 3 -8 9 -11 14 -8 5 3 9 0 9 -5 0 -6
-7 -11 -15 -11 -8 0 -14 -5 -12 -12 1 -6 -21 -19 -49 -27 l-52 -16 150 -29
c82 -16 188 -30 236 -33 101 -5 135 -10 128 -22 -6 -9 138 -21 263 -21 90 0
302 17 310 25 9 10 -9 17 -54 23 -45 5 -45 5 -28 24 16 18 18 44 18 262 l0
242 -29 27 c-16 15 -33 27 -37 27 -5 0 -9 18 -9 40 0 34 4 42 24 50 31 12 56
48 56 81 0 28 -43 89 -62 89 -6 0 2 -12 16 -27 l28 -27 -34 -12 c-18 -6 -27
-13 -19 -15 9 -3 1 -13 -21 -28 -26 -18 -34 -30 -30 -47 3 -16 -1 -24 -14 -27
-11 -2 -7 -3 9 -1 15 2 27 -1 27 -6 0 -6 -8 -10 -17 -10 -14 0 -13 -3 5 -16
26 -18 29 -41 5 -47 -14 -4 -12 -5 5 -6 34 -2 26 -21 -9 -21 -21 0 -28 4 -23
13 6 10 4 10 -7 0 -13 -13 -159 -19 -159 -8 0 3 9 18 20 33 22 29 19 62 -6 62
-8 0 -19 -9 -26 -20 -7 -11 -20 -20 -28 -20 -8 0 12 25 45 55 57 51 59 54 33
55 -33 0 -33 3 -12 35 l16 25 -39 0 c-26 0 -46 6 -57 19 -17 18 -15 20 31 37
34 13 69 39 121 92 63 66 92 105 62 87 -17 -11 -11 3 30 71 22 36 40 68 40 70
0 5 -24 4 -121 -7z m-621 -627 c5 -15 -41 -33 -71 -28 -30 4 -28 20 3 24 14 2
29 8 35 13 11 11 27 7 33 -9z m370 -2 c-8 -13 -15 -16 -19 -8 -10 15 -2 28 17
28 12 0 12 -4 2 -20z m-326 -25 c-36 -30 -42 -31 -42 -7 0 26 9 32 42 32 l30
0 -30 -25z m165 2 c7 -2 15 -6 18 -10 3 -4 2 -5 -1 -2 -4 2 -14 -5 -23 -16
l-17 -21 -38 23 c-56 33 -22 47 61 26z m501 -14 l53 -6 -3 -46 -3 -46 -170 -3
c-151 -2 -171 -1 -182 15 -14 18 -18 75 -6 86 8 9 241 9 311 0z m-560 -29 c12
-8 22 -20 22 -27 0 -24 -69 -80 -120 -97 -51 -17 -95 -17 -84 1 3 5 -2 9 -12
9 -13 0 -14 3 -4 15 7 8 18 15 25 15 12 0 52 39 48 46 -8 12 0 24 30 43 33 21
54 20 95 -5z m-222 -11 c-7 -7 -26 7 -26 19 0 6 6 6 15 -2 9 -7 13 -15 11 -17z
m44 12 c0 -8 -7 -15 -15 -15 -8 0 -15 7 -15 15 0 8 7 15 15 15 8 0 15 -7 15
-15z m290 -129 c0 -3 -4 -8 -10 -11 -5 -3 -10 -1 -10 4 0 6 5 11 10 11 6 0 10
-2 10 -4z m157 -58 c-3 -7 -5 -2 -5 12 0 14 2 19 5 13 2 -7 2 -19 0 -25z m20
0 c-3 -7 -5 -2 -5 12 0 14 2 19 5 13 2 -7 2 -19 0 -25z m96 12 c-3 -11 -7 -20
-9 -20 -2 0 -4 9 -4 20 0 11 4 20 9 20 5 0 7 -9 4 -20z m225 -2 c4 -19 -29
-32 -58 -23 -11 4 -20 15 -20 26 0 17 6 20 37 17 26 -2 39 -8 41 -20z m-288
-2 c0 -3 -4 -8 -10 -11 -5 -3 -10 -1 -10 4 0 6 5 11 10 11 6 0 10 -2 10 -4z
m-690 -26 c-8 -5 -24 -9 -35 -9 -16 1 -16 2 5 9 35 11 48 11 30 0z m10 -20
c-8 -5 -19 -10 -25 -10 -5 0 -3 5 5 10 8 5 20 10 25 10 6 0 3 -5 -5 -10z m365
-10 c3 -5 15 -10 25 -10 32 0 35 -22 6 -47 -32 -27 -62 -29 -88 -6 -21 19 -23
44 -6 61 15 15 54 16 63 2z m605 -74 c0 -83 -12 -115 -31 -85 -8 12 -10 12
-18 0 -19 -30 -31 2 -31 85 l0 84 40 0 40 0 0 -84z m-290 23 c0 -28 -2 -30
-32 -27 -28 2 -34 8 -36 31 -3 25 -1 27 32 27 33 0 36 -2 36 -31z m85 10 c9
-27 -6 -42 -36 -37 -18 2 -25 10 -27 31 -3 24 0 27 27 27 21 0 31 -6 36 -21z
m95 -9 c0 -28 -3 -30 -35 -30 -32 0 -35 2 -35 30 0 28 3 30 35 30 32 0 35 -2
35 -30z m-189 -60 c5 0 9 -13 9 -30 0 -25 -4 -30 -23 -30 -27 0 -47 17 -47 41
0 19 18 30 38 23 8 -2 18 -4 23 -4z m94 -30 c0 -21 -5 -25 -30 -25 -25 0 -30
4 -33 28 -3 27 -1 28 30 25 28 -2 33 -7 33 -28z m95 -1 c0 -28 -2 -30 -32 -27
-28 2 -34 8 -36 31 -3 25 -1 27 32 27 33 0 36 -2 36 -31z"/>
<path d="M1050 1620 l-25 -8 28 -1 c15 -1 27 4 27 9 0 6 -1 10 -2 9 -2 -1 -14
-5 -28 -9z"/>
<path d="M912 1604 c-7 -8 -8 -14 -3 -14 10 0 25 19 20 25 -2 1 -10 -3 -17
-11z"/>
<path d="M1158 1603 c7 -3 16 -2 19 1 4 3 -2 6 -13 5 -11 0 -14 -3 -6 -6z"/>
<path d="M1317 1579 c-34 -18 -39 -18 -59 -4 -13 8 -27 15 -33 15 -5 -1 3 -8
18 -16 24 -13 26 -18 15 -31 -10 -12 87 35 111 54 14 10 -20 -1 -52 -18z"/>
<path d="M702 1520 c0 -14 2 -19 5 -12 2 6 2 18 0 25 -3 6 -5 1 -5 -13z"/>
<path d="M681 1354 c0 -11 3 -14 6 -6 3 7 2 16 -1 19 -3 4 -6 -2 -5 -13z"/>
<path d="M1032 1350 c-31 -19 -52 -54 -52 -85 0 -29 44 -66 85 -70 39 -5 39
-4 7 4 -59 15 -53 26 15 27 56 0 62 -2 47 -13 -10 -7 -12 -13 -5 -13 6 0 23
11 36 25 34 33 35 107 3 129 -31 22 -96 20 -136 -4z m57 -16 c-6 -8 -18 -14
-27 -14 -13 0 -12 3 3 20 20 22 43 17 24 -6z"/>
<path d="M706 1341 c-4 -5 -9 -36 -12 -68 -5 -49 -3 -61 11 -73 17 -14 17 -13
7 7 -13 24 -16 69 -4 76 4 3 7 -9 7 -26 0 -24 4 -32 18 -31 9 1 17 -4 17 -12
0 -8 -5 -14 -12 -14 -6 0 -9 -2 -6 -5 12 -12 38 9 51 44 11 26 13 48 7 72 -4
18 -8 29 -9 22 -1 -9 -8 -8 -28 3 -33 16 -40 17 -47 5z m44 -27 c0 -9 -5 -14
-12 -12 -18 6 -21 28 -4 28 9 0 16 -7 16 -16z"/>
<path d="M1618 1323 c6 -2 18 -2 25 0 6 3 1 5 -13 5 -14 0 -19 -2 -12 -5z"/>
<path d="M1790 1320 c-9 -6 -10 -10 -3 -10 6 0 15 5 18 10 8 12 4 12 -15 0z"/>
<path d="M672 1280 c0 -19 2 -27 5 -17 2 9 2 25 0 35 -3 9 -5 1 -5 -18z"/>
<path d="M840 1250 c0 -5 9 -10 20 -10 11 0 20 5 20 10 0 6 -9 10 -20 10 -11
0 -20 -4 -20 -10z"/>
<path d="M1561 1224 c0 -11 3 -14 6 -6 3 7 2 16 -1 19 -3 4 -6 -2 -5 -13z"/>
<path d="M845 1210 c-4 -6 -13 -9 -21 -6 -18 7 -29 -13 -15 -27 7 -7 11 -7 11
-1 0 14 48 36 61 29 17 -11 49 -14 49 -4 0 5 -8 9 -17 9 -10 0 -28 3 -39 6
-12 3 -25 1 -29 -6z"/>
<path d="M1585 1180 c10 -11 20 -20 23 -20 3 0 -3 9 -13 20 -10 11 -20 20 -23
20 -3 0 3 -9 13 -20z"/>
<path d="M622 1140 c0 -14 2 -19 5 -12 2 6 2 18 0 25 -3 6 -5 1 -5 -13z"/>
<path d="M1495 1120 c-3 -6 1 -7 9 -4 18 7 21 14 7 14 -6 0 -13 -4 -16 -10z"/>
<path d="M659 1071 c13 -12 28 -21 34 -21 12 0 11 0 -28 24 l-30 17 24 -20z"/>
<path d="M389 953 c-13 -16 -12 -17 4 -4 9 7 17 15 17 17 0 8 -8 3 -21 -13z"/>
<path d="M370 902 c0 -5 12 -17 26 -27 17 -11 25 -13 22 -4 -5 16 -48 44 -48
31z"/>
<path d="M775 660 c10 -11 20 -20 23 -20 3 0 -3 9 -13 20 -10 11 -20 20 -23
20 -3 0 3 -9 13 -20z"/>
<path d="M625 410 c-9 -14 14 -22 32 -11 10 6 16 11 13 11 -31 7 -41 7 -45 0z"/>
</g>
</svg>
