<svg width="65" height="65" viewBox="0 0 65 65" fill="none" xmlns="http://www.w3.org/2000/svg">
<rect width="65" height="65" fill="#EDF4F7"/>
<path d="M46.332 28.6667C46.3321 28.4248 46.2662 28.1874 46.1413 27.9801L42.5293 21.9601C42.2914 21.5665 41.9562 21.2408 41.5559 21.0143C41.1557 20.7878 40.7039 20.6681 40.244 20.6667H25.7533C24.8227 20.6667 23.9467 21.1627 23.468 21.9614L19.856 27.9801C19.7311 28.1874 19.6652 28.4248 19.6653 28.6667C19.6653 30.0067 20.18 31.2187 20.9987 32.1574V44.6667C20.9987 45.0204 21.1391 45.3595 21.3892 45.6096C21.6392 45.8596 21.9784 46.0001 22.332 46.0001H32.9987C33.3523 46.0001 33.6914 45.8596 33.9415 45.6096C34.1915 45.3595 34.332 45.0204 34.332 44.6667V38.0001H39.6653V44.6667C39.6653 45.0204 39.8058 45.3595 40.0559 45.6096C40.3059 45.8596 40.645 46.0001 40.9987 46.0001H43.6653C44.019 46.0001 44.3581 45.8596 44.6081 45.6096C44.8582 45.3595 44.9987 45.0204 44.9987 44.6667V32.1574C45.8173 31.2187 46.332 30.0067 46.332 28.6667V28.6667ZM43.644 29.0014C43.562 29.6453 43.2482 30.2372 42.7613 30.6664C42.2744 31.0957 41.6477 31.3328 40.9987 31.3334C39.528 31.3334 38.332 30.1374 38.332 28.6667C38.332 28.5761 38.2987 28.4961 38.28 28.4107L38.3067 28.4054L37.292 23.3334H40.244L43.644 29.0014V29.0014ZM30.3413 28.7534L31.424 23.3334H34.572L35.656 28.7534C35.6093 30.1841 34.4387 31.3334 32.9987 31.3334C31.5587 31.3334 30.388 30.1841 30.3413 28.7534V28.7534ZM25.7533 23.3334H28.7053L27.692 28.4054L27.7187 28.4107C27.6987 28.4961 27.6653 28.5761 27.6653 28.6667C27.6653 30.1374 26.4693 31.3334 24.9987 31.3334C24.3496 31.3328 23.723 31.0957 23.2361 30.6664C22.7492 30.2372 22.4354 29.6453 22.3533 29.0014L25.7533 23.3334ZM30.332 39.3334H24.9987V35.3334H30.332V39.3334Z" fill="#81B2CA"/>
</svg>
