<svg width="65" height="65" viewBox="0 0 65 65" fill="none" xmlns="http://www.w3.org/2000/svg">
<rect width="65" height="65" fill="#F9E4E4"/>
<path fill-rule="evenodd" clip-rule="evenodd" d="M33.5208 23.1042H47.4167C50.5923 23.1042 53.1667 25.6785 53.1667 28.8542V40.3542C53.1667 43.5298 50.5923 46.1042 47.4167 46.1042H16.75C13.5744 46.1042 11 43.5298 11 40.3542V28.8542C11 25.6785 13.5744 23.1042 16.75 23.1042H30.6458V19.2708C30.6458 17.4184 32.1475 15.9167 34 15.9167C34.2646 15.9167 34.4792 15.7021 34.4792 15.4375C34.4792 14.6436 35.1228 14 35.9167 14C36.7106 14 37.3542 14.6436 37.3542 15.4375C37.3229 17.2706 35.8334 18.7432 34 18.7533C33.866 18.7529 33.7379 18.8086 33.6469 18.9069C33.5558 19.0053 33.5101 19.1372 33.5208 19.2708V23.1042ZM47.4167 43.2292C49.0045 43.2292 50.2917 41.942 50.2917 40.3542V28.8542C50.2604 27.2888 48.9823 26.0364 47.4167 26.0367H16.75C15.1844 26.0364 13.9063 27.2888 13.875 28.8542V40.3542C13.875 41.942 15.1622 43.2292 16.75 43.2292H47.4167Z" fill="#D93E3E"/>
<path d="M26.3333 33.205H23.9375V30.7708C23.9375 29.9769 23.2939 29.3333 22.5 29.3333C21.7061 29.3333 21.0625 29.9769 21.0625 30.7708V33.1667H18.6667C17.8728 33.1667 17.2292 33.8103 17.2292 34.6042C17.2292 35.3981 17.8728 36.0417 18.6667 36.0417H21.0625V38.4375C21.0625 39.2314 21.7061 39.875 22.5 39.875C23.2939 39.875 23.9375 39.2314 23.9375 38.4375V36.08H26.3333C27.1272 36.08 27.7708 35.4364 27.7708 34.6425C27.7708 33.8486 27.1272 33.205 26.3333 33.205Z" fill="#D93E3E"/>
<path d="M41.6667 30.8092C41.6667 31.8677 40.8085 32.7258 39.75 32.7258C38.6915 32.7258 37.8333 31.8677 37.8333 30.8092C37.8333 29.7506 38.6915 28.8925 39.75 28.8925C40.8085 28.8925 41.6667 29.7506 41.6667 30.8092Z" fill="#D93E3E"/>
<path d="M41.6667 38.4758C41.6667 39.5344 40.8085 40.3925 39.75 40.3925C38.6915 40.3925 37.8333 39.5344 37.8333 38.4758C37.8333 37.4173 38.6915 36.5592 39.75 36.5592C40.8085 36.5592 41.6667 37.4173 41.6667 38.4758Z" fill="#D93E3E"/>
<path d="M45.5 34.6425C45.5 35.701 44.6419 36.5592 43.5833 36.5592C42.5248 36.5592 41.6667 35.701 41.6667 34.6425C41.6667 33.584 42.5248 32.7258 43.5833 32.7258C44.6419 32.7258 45.5 33.584 45.5 34.6425Z" fill="#D93E3E"/>
<path d="M37.8333 34.6425C37.8333 35.701 36.9752 36.5592 35.9167 36.5592C34.8581 36.5592 34 35.701 34 34.6425C34 33.584 34.8581 32.7258 35.9167 32.7258C36.9752 32.7258 37.8333 33.584 37.8333 34.6425Z" fill="#D93E3E"/>
</svg>
