<svg width="40" height="40" viewBox="0 0 40 40" fill="none" xmlns="http://www.w3.org/2000/svg">
<rect width="40" height="40" fill="#E1DDF9"/>
<path d="M20.5 14C21.3284 14 22 13.3284 22 12.5C22 11.6716 21.3284 11 20.5 11C19.6716 11 19 11.6716 19 12.5C19 13.3284 19.6716 14 20.5 14Z" fill="#280CD6"/>
<path d="M21.84 26.01H23C23.5523 26.01 24 26.4577 24 27.01C24 27.5623 23.5523 28.01 23 28.01H18C17.4477 28.01 17 27.5623 17 27.01C17 26.4577 17.4477 26.01 18 26.01H19.84V17.01H18.84C18.2877 17.01 17.84 16.5623 17.84 16.01C17.84 15.4577 18.2877 15.01 18.84 15.01H20.84C21.3923 15.01 21.84 15.4577 21.84 16.01V26.01Z" fill="#280CD6"/>
</svg>
