<svg width="40" height="40" viewBox="0 0 40 40" fill="none" xmlns="http://www.w3.org/2000/svg">
<rect width="40" height="40" fill="#DBDBDB"/>
<path fill-rule="evenodd" clip-rule="evenodd" d="M28.29 15.0005L22.73 10.8905C21.1036 9.70317 18.8964 9.70317 17.27 10.8905L11.72 15.0005C10.6454 15.7746 10.0061 17.0161 10 18.3405V25.7705C10.06 28.1637 12.0466 30.0564 14.44 30.0005H25.56C27.9534 30.0564 29.94 28.1637 30 25.7705V18.3305C29.9914 17.0118 29.3567 15.7758 28.29 15.0005ZM28.5 25.7705C28.4404 27.3354 27.1251 28.5568 25.56 28.5005H14.44C12.877 28.5512 11.565 27.333 11.5 25.7705V18.3405C11.5053 17.4904 11.9182 16.6945 12.61 16.2005L18.16 12.1005C19.2561 11.3001 20.7439 11.3001 21.84 12.1005L27.39 16.2105C28.0812 16.6959 28.4948 17.4858 28.5 18.3305V25.7705ZM15.5 23.7505H24.5C24.9142 23.7505 25.25 24.0863 25.25 24.5005C25.25 24.9147 24.9142 25.2505 24.5 25.2505H15.5C15.0858 25.2505 14.75 24.9147 14.75 24.5005C14.75 24.0863 15.0858 23.7505 15.5 23.7505Z" fill="black"/>
</svg>
