<svg width="65" height="65" viewBox="0 0 65 65" fill="none" xmlns="http://www.w3.org/2000/svg">
<rect width="65" height="65" fill="#EDEBED"/>
<path d="M23.6667 19.6667H26.3333V23.6667H23.6667V19.6667ZM29 19.6667H31.6667V23.6667H29V19.6667ZM34.3333 19.6667H37V23.6667H34.3333V19.6667ZM42.3333 29.0001H39.6667V27.6667C39.6667 27.3131 39.5262 26.974 39.2761 26.7239C39.0261 26.4739 38.687 26.3334 38.3333 26.3334H22.3333C21.9797 26.3334 21.6406 26.4739 21.3905 26.7239C21.1405 26.974 21 27.3131 21 27.6667V41.0001C21 42.0609 21.4214 43.0784 22.1716 43.8285C22.9217 44.5787 23.9391 45.0001 25 45.0001H35.6667C36.7275 45.0001 37.7449 44.5787 38.4951 43.8285C39.2452 43.0784 39.6667 42.0609 39.6667 41.0001H42.3333C43.804 41.0001 45 39.8041 45 38.3334V31.6667C45 30.1961 43.804 29.0001 42.3333 29.0001ZM39.6667 38.3334V31.6667H42.3333L42.336 38.3334H39.6667Z" fill="#836F81"/>
</svg>
