<svg width="40" height="40" viewBox="0 0 40 40" fill="none" xmlns="http://www.w3.org/2000/svg">
<rect width="40" height="40" fill="#DEF3EB"/>
<path fill-rule="evenodd" clip-rule="evenodd" d="M11.75 12H12.75L12.8 12.01C14.1862 12.0369 15.3973 12.9533 15.8 14.28L16 14.97H26.43C27.351 14.9742 28.2256 15.375 28.83 16.07C29.4327 16.7694 29.6994 17.6973 29.56 18.61L28.96 22.75C28.7602 24.3369 27.4193 25.5325 25.82 25.55H19.94C18.5353 25.5448 17.2982 24.6241 16.89 23.28L14.36 14.75C14.1663 14.0182 13.507 13.5063 12.75 13.5H11.75C11.3358 13.5 11 13.1642 11 12.75C11 12.3358 11.3358 12 11.75 12ZM18.33 22.8C18.5423 23.512 19.197 24 19.94 24H25.82C26.6477 23.991 27.3486 23.3872 27.48 22.57L28.08 18.42C28.1617 17.9369 28.0285 17.4423 27.7152 17.0656C27.402 16.6889 26.9399 16.4677 26.45 16.46H16.45L18.33 22.8Z" fill="#12AD75"/>
<path d="M19.71 26.75C19.1577 26.75 18.71 27.1977 18.71 27.75C18.71 28.3023 19.1577 28.75 19.71 28.75C20.2623 28.75 20.71 28.3023 20.71 27.75C20.71 27.1977 20.2623 26.75 19.71 26.75Z" fill="#12AD75"/>
<path d="M25.71 26.75C25.1577 26.75 24.71 27.1977 24.71 27.75C24.71 28.3023 25.1577 28.75 25.71 28.75C26.2623 28.75 26.71 28.3023 26.71 27.75C26.71 27.1977 26.2623 26.75 25.71 26.75Z" fill="#12AD75"/>
</svg>
