<svg width="65" height="65" viewBox="0 0 65 65" fill="none" xmlns="http://www.w3.org/2000/svg">
<rect width="65" height="65" fill="#E4EEEC"/>
<path d="M45 25.0281C45.004 24.8334 44.9907 23.0747 43.2667 21.3814C41.5693 19.7147 39.8573 19.6667 39.6667 19.6667H26.328C26.0093 19.6667 24.3373 19.7507 22.7173 21.4027C21.048 23.1041 21 24.8121 21 25.0001V29.0001H19.6667V33.0001H21V41.0001C21 41.9787 21.5413 42.8307 22.3333 43.2947V45.0001C22.3333 45.3537 22.4738 45.6928 22.7239 45.9429C22.9739 46.1929 23.313 46.3334 23.6667 46.3334H25C25.3536 46.3334 25.6928 46.1929 25.9428 45.9429C26.1929 45.6928 26.3333 45.3537 26.3333 45.0001V43.6667H39.6667V45.0001C39.6667 45.3537 39.8071 45.6928 40.0572 45.9429C40.3072 46.1929 40.6464 46.3334 41 46.3334H42.3333C42.687 46.3334 43.0261 46.1929 43.2761 45.9429C43.5262 45.6928 43.6667 45.3537 43.6667 45.0001V43.2974C44.0712 43.0654 44.4074 42.7309 44.6415 42.3276C44.8756 41.9243 44.9992 41.4664 45 41.0001V33.0001H46.3333V29.0001H45V25.0281ZM29 22.3334H37V25.0001H29V22.3334ZM25.6667 41.0001C25.1361 40.9999 24.6273 40.789 24.2522 40.4136C23.8771 40.0383 23.6665 39.5294 23.6667 38.9987C23.6668 38.4681 23.8778 37.9593 24.2531 37.5843C24.6284 37.2092 25.1374 36.9986 25.668 36.9987C26.1986 36.9989 26.7074 37.2099 27.0825 37.5852C27.4576 37.9605 27.6682 38.4695 27.668 39.0001C27.6678 39.5307 27.4569 40.0395 27.0815 40.4146C26.7062 40.7896 26.1973 41.0003 25.6667 41.0001V41.0001ZM31.6667 34.3334H23.6667V27.6667H31.6667V34.3334ZM40.3333 41.0001C39.8027 40.9999 39.2939 40.789 38.9188 40.4136C38.5438 40.0383 38.3332 39.5294 38.3333 38.9987C38.3335 38.4681 38.5445 37.9593 38.9198 37.5843C39.2951 37.2092 39.8041 36.9986 40.3347 36.9987C40.8653 36.9989 41.3741 37.2099 41.7492 37.5852C42.1242 37.9605 42.3348 38.4695 42.3347 39.0001C42.3345 39.5307 42.1235 40.0395 41.7482 40.4146C41.3729 40.7896 40.8639 41.0003 40.3333 41.0001V41.0001ZM42.3333 34.3334H34.3333V27.6667H42.3333V34.3334Z" fill="#42887C"/>
</svg>
